<?xml version="1.0" encoding="UTF-8" standalone="no"?>
<!-- Created with Inkscape (http://www.inkscape.org/) -->

<svg
   width="188.31287mm"
   height="58.334217mm"
   viewBox="0 0 283.90315 111.36532"
   version="1.1"
   id="svg1"
   xml:space="preserve"
   sodipodi:docname="witaqua.svg"
   inkscape:version="1.4 (e7c3feb100, 2024-10-09)"
   xmlns:inkscape="http://www.inkscape.org/namespaces/inkscape"
   xmlns:sodipodi="http://sodipodi.sourceforge.net/DTD/sodipodi-0.dtd"
   xmlns:xlink="http://www.w3.org/1999/xlink"
   xmlns="http://www.w3.org/2000/svg"
   xmlns:svg="http://www.w3.org/2000/svg"><sodipodi:namedview
     id="namedview1"
     pagecolor="#ffffff"
     bordercolor="#000000"
     borderopacity="0.25"
     inkscape:showpageshadow="2"
     inkscape:pageopacity="0.0"
     inkscape:pagecheckerboard="0"
     inkscape:deskcolor="#d1d1d1"
     inkscape:document-units="mm"
     inkscape:zoom="1.116693"
     inkscape:cx="415.51258"
     inkscape:cy="113.72866"
     inkscape:window-width="1884"
     inkscape:window-height="985"
     inkscape:window-x="0"
     inkscape:window-y="0"
     inkscape:window-maximized="1"
     inkscape:current-layer="g2" /><defs
     id="defs1"><linearGradient
       id="linearGradient2"><stop
         style="stop-color:#00cdad;stop-opacity:1;"
         offset="0.16661575"
         id="stop4" /><stop
         style="stop-color:#00eded;stop-opacity:1;"
         offset="0.43399215"
         id="stop2" /><stop
         style="stop-color:#d1fcfc;stop-opacity:1;"
         offset="0.85024196"
         id="stop1" /><stop
         style="stop-color:#ffffff;stop-opacity:1;"
         offset="0.9965114"
         id="stop3" /></linearGradient><linearGradient
       xlink:href="#linearGradient2"
       id="linearGradient3"
       x1="64.455711"
       y1="77.439041"
       x2="121.96951"
       y2="138.7738"
       gradientUnits="userSpaceOnUse"
       gradientTransform="matrix(0.97798636,0,0,0.9790443,-110.20788,4.1373729)" /></defs><g
     id="layer1"
     transform="translate(-8.2922656,-49.317339)"><g
       id="g1"><g
         id="g2"
         transform="matrix(0.95125989,0,0,0.95125989,15.216175,5.1922164)"><g
           id="g3"
           transform="translate(0.47550718,-4.5178844)"><g
             id="text1"
             style="font-size:50.8px;white-space:pre;inline-size:202.897;fill:#1a1a1a;stroke-width:0.264583"
             transform="matrix(1.5101434,0,0,1.6568227,-34.770453,-55.870379)"
             aria-label="WitAqua"><path
               style="font-family:Ubuntu;-inkscape-font-specification:Ubuntu;fill:#cccccc"
               d="m 60.252859,91.643257 q -2.1336,6.8072 -4.318,12.598403 -2.1844,5.7912 -4.3688,11.2776 h -4.9276 q -2.6924,-7.7724 -4.7752,-16.408403 -2.032,-8.636 -3.81,-18.796 h 5.1816 q 0.7112,3.9624 1.4732,7.9248 0.762,3.9624 1.5748,7.7216 0.8128,3.7084 1.6256,7.112003 0.8128,3.4036 1.6764,6.2992 2.032,-5.334 4.318,-11.684003 2.286,-6.4008 4.2672,-13.208 h 4.2672 q 1.9812,6.8072 4.318,13.208 2.3368,6.350003 4.3688,11.684003 0.8128,-2.8448 1.6256,-6.2484 0.8128,-3.403603 1.5748,-7.112003 0.8128,-3.7592 1.5748,-7.7216 0.762,-4.0132 1.4732,-7.9756 h 5.0292 q -1.8288,10.16 -3.9116,18.796 -2.032,8.636003 -4.6736,16.408403 h -4.9276 q -2.2352,-5.4864 -4.3688,-11.2776 -2.1336,-5.791203 -4.2672,-12.598403 z M 92.6125,115.51926 H 87.8881 V 89.103257 h 4.7244 z M 90.2249,84.328057 q -1.27,0 -2.1844,-0.8128 -0.8636,-0.8636 -0.8636,-2.286 0,-1.4224 0.8636,-2.2352 0.9144,-0.8636 2.1844,-0.8636 1.27,0 2.1336,0.8636 0.9144,0.8128 0.9144,2.2352 0,1.4224 -0.9144,2.286 -0.8636,0.8128 -2.1336,0.8128 z m 14.93521,4.7752 h 10.0076 v 3.9624 h -10.0076 v 12.192003 q 0,1.9812 0.3048,3.302 0.3048,1.27 0.9144,2.032 0.6096,0.7112 1.524,1.016 0.9144,0.3048 2.1336,0.3048 2.1336,0 3.4036,-0.4572 1.3208,-0.508 1.8288,-0.7112 l 0.9144,3.9116 q -0.7112,0.3556 -2.4892,0.8636 -1.778,0.5588 -4.064,0.5588 -2.6924,0 -4.4704,-0.6604 -1.7272,-0.7112 -2.794,-2.0828 -1.0668,-1.3716 -1.524,-3.3528 -0.4064,-2.032 -0.4064,-4.6736 V 81.737257 l 4.7244,-0.8128 z"
               id="path1-9" /><path
               style="font-family:Ubuntu;-inkscape-font-specification:Ubuntu;fill:#00c8ff"
               d="m 144.98734,115.51926 q -0.8636,-2.286 -1.6256,-4.4704 -0.762,-2.2352 -1.5748,-4.5212 h -15.9512 l -3.2004,8.9916 h -5.1308 q 2.032,-5.588 3.81,-10.3124 1.778,-4.7752 3.4544,-9.042403 1.7272,-4.2672 3.4036,-8.128 1.6764,-3.9116 3.5052,-7.7216 h 4.5212 q 1.8288,3.81 3.5052,7.7216 1.6764,3.8608 3.3528,8.128 1.7272,4.267203 3.5052,9.042403 1.778,4.7244 3.81,10.3124 z m -4.6228,-13.0556 q -1.6256,-4.419603 -3.2512,-8.534403 -1.5748,-4.1656 -3.302,-7.9756 -1.778,3.81 -3.4036,7.9756 -1.5748,4.1148 -3.1496,8.534403 z m 17.27198,-0.1016 q 0,2.032 0.4064,3.81 0.4064,1.7272 1.3208,3.048 0.9144,1.27 2.3368,2.032 1.4732,0.7112 3.5052,0.7112 1.9304,0 3.556,-0.6604 1.6256,-0.6604 2.4892,-1.3716 V 93.268857 q -0.7112,-0.2032 -1.9304,-0.3556 -1.1684,-0.1524 -3.302,-0.1524 -3.81,0 -6.096,2.4892 -2.286,2.4892 -2.286,7.112003 z m -4.9276,0 q 0,-3.200403 0.9144,-5.740403 0.9652,-2.5908 2.6924,-4.3688 1.7272,-1.778 4.1656,-2.7432 2.4384,-0.9652 5.4864,-0.9652 3.302,0 5.7912,0.508 2.54,0.4572 4.2164,0.8636 v 35.001203 h -4.7244 v -10.5664 q -0.8636,0.5588 -2.6416,1.1684 -1.7272,0.6096 -4.0132,0.6096 -2.8448,0 -5.08,-1.016 -2.1844,-1.016 -3.7084,-2.8448 -1.524,-1.8288 -2.3368,-4.3688 -0.762,-2.54 -0.762,-5.5372 z m 52.42563,12.3952 q -1.6256,0.4064 -4.318,0.8636 -2.6416,0.4572 -6.1468,0.4572 -3.048,0 -5.1308,-0.8636 -2.0828,-0.9144 -3.3528,-2.54 -1.27,-1.6256 -1.8288,-3.81 -0.5588,-2.2352 -0.5588,-4.9276 V 89.103257 h 4.7244 v 13.817603 q 0,4.826 1.524,6.9088 1.524,2.0828 5.1308,2.0828 0.762,0 1.5748,-0.0508 0.8128,-0.0508 1.524,-0.1016 0.7112,-0.1016 1.27,-0.1524 0.6096,-0.1016 0.8636,-0.2032 V 89.103257 h 4.7244 z m 17.06877,-2.6416 q 1.6764,0 2.9464,-0.0508 1.3208,-0.1016 2.1844,-0.3048 v -7.874 q -0.508,-0.254 -1.6764,-0.4064 -1.1176,-0.2032 -2.7432,-0.2032 -1.0668,0 -2.286,0.1524 -1.1684,0.1524 -2.1844,0.6604 -0.9652,0.4572 -1.6256,1.3208 -0.6604,0.8128 -0.6604,2.1844 0,2.54 1.6256,3.556 1.6256,0.9652 4.4196,0.9652 z m -0.4064,-23.672803 q 2.8448,0 4.7752,0.762 1.9812,0.7112 3.1496,2.0828 1.2192,1.3208 1.7272,3.2004 0.508,1.8288 0.508,4.064 v 16.510003 q -0.6096,0.1016 -1.7272,0.3048 -1.0668,0.1524 -2.4384,0.3048 -1.3716,0.1524 -2.9972,0.254 -1.5748,0.1524 -3.1496,0.1524 -2.2352,0 -4.1148,-0.4572 -1.8796,-0.4572 -3.2512,-1.4224 -1.3716,-1.016 -2.1336,-2.6416 -0.762,-1.6256 -0.762,-3.9116 0,-2.1844 0.8636,-3.7592 0.9144,-1.5748 2.4384,-2.54 1.524,-0.9652 3.556,-1.422403 2.032,-0.4572 4.2672,-0.4572 0.7112,0 1.4732,0.1016 0.762,0.0508 1.4224,0.2032 0.7112,0.1016 1.2192,0.2032 0.508,0.101603 0.7112,0.152403 v -1.320803 q 0,-1.1684 -0.254,-2.286 -0.254,-1.1684 -0.9144,-2.032 -0.6604,-0.9144 -1.8288,-1.4224 -1.1176,-0.5588 -2.9464,-0.5588 -2.3368,0 -4.1148,0.3556 -1.7272,0.3048 -2.5908,0.6604 l -0.5588,-3.9116 q 0.9144,-0.4064 3.048,-0.762 2.1336,-0.4064 4.6228,-0.4064 z"
               id="path2" /></g><path
             style="fill:url(#linearGradient3);stroke:#d9e1db;stroke-width:1.43353;stroke-linecap:round;stroke-linejoin:bevel;stroke-dasharray:none;stroke-opacity:1"
             d="m -10.938458,68.181679 c 0,0 -47.331045,75.828921 0.416421,75.801231 50.161169,-0.029 -0.416421,-75.801231 -0.416421,-75.801231 z"
             id="path1" /></g></g></g></g></svg>
